# xmcd
#
# Track frame offsets:
#	150
#	12740
#	22737
#	39067
#	53910
#	68030
#	80302
#	93037
#	105900
#	122295
#	133577
#	145942
#	157282
#	171050
#	181462
#	193402
#	210187
#	225135
#	242437
#
# Disc length: 3400 seconds
#
# Revision: 2
# Processed by: cddbd v1.5.1PL0 Copyright (c) Steve Scherf et al.
# Submitted via: audiograbber 1.82.02
#
DISCID=e20d4613
DTITLE=Various Artist - SAVA04
DYEAR=1900
DGENRE=Karaoke
TTITLE0=Tritt, Travis - Here's A Quarter (Call Someone Who Cares)
TTITLE1=Williams, Hank Jr. - Honky Tonk Blues
TTITLE2=Gayle, Crystal - You Never Gave Up On Me
TTITLE3=Lewis, Jerry Lee - She Even Woke Me Up To Say Goodbye
TTITLE4=Hobbs, Becky - Talk Back Trembling Lips
TTITLE5=Orbison, Roy - Only The Lonely
TTITLE6=Williams, Hank Jr. - Mind Your Own Business
TTITLE7=Ford, Tennessee Ernie - Sixteen Tons
TTITLE8=Judds - Maybe Your Baby's Got The Blues
TTITLE9=Desert Rose Band - Hello Trouble
TTITLE10=Desert Rose Band - Too Gone Too Long
TTITLE11=Nelson, Ricky - Travelin' Man
TTITLE12=O'keefe, Danny - Good Time Charlie's Got The Blues
TTITLE13=Lewis, Jerry Lee - Great Balls Of Fire
TTITLE14=Conlee, John - Back Side Of Thirty
TTITLE15=Parton, Dolly - Old Flames Can't Hold A Candle To You
TTITLE16=Judds - Give A Little Love
TTITLE17=Mcdowell, Ronnie - Life's Little Ups And Downs
TTITLE18=Loveless, Patty - Chains
EXTD=
EXTT0=
EXTT1=
EXTT2=
EXTT3=
EXTT4=
EXTT5=
EXTT6=
EXTT7=
EXTT8=
EXTT9=
EXTT10=
EXTT11=
EXTT12=
EXTT13=
EXTT14=
EXTT15=
EXTT16=
EXTT17=
EXTT18=
PLAYORDER=
